<svg xmlns="http://www.w3.org/2000/svg"
     viewBox="0 0 24 24"
     width="48"
     height="48"
     aria-hidden="true">
  <rect x="0" y="0" width="24" height="24" rx="4" fill="#111111"/>
  <path fill="#ffffff" d="M12 2.2a9.8 9.8 0 0 0-3.1 19.1c.5.1.7-.2.7-.5v-1.9c-2.8.6-3.4-1.3-3.4-1.3-.5-1.2-1.1-1.5-1.1-1.5-.9-.6.1-.6.1-.6 1 .1 1.6 1 1.6 1 .9 1.6 2.4 1.1 3 .9.1-.7.4-1.1.7-1.3-2.2-.3-4.5-1.1-4.5-4.9 0-1.1.4-2 1-2.7-.1-.3-.4-1.3.1-2.6 0 0 .8-.3 2.7 1a9.3 9.3 0 0 1 4.9 0c1.9-1.3 2.7-1 2.7-1 .5 1.3.2 2.3.1 2.6.6.7 1 1.6 1 2.7 0 3.8-2.3 4.6-4.5 4.9.4.3.8 1 .8 2.1v3.1c0 .3.2.6.7.5A9.8 9.8 0 0 0 12 2.2z"/>
</svg>
