<svg xmlns="http://www.w3.org/2000/svg"
     viewBox="0 0 24 24"
     width="48"
     height="48"
     aria-hidden="true">
  <rect x="0" y="0" width="24" height="24" rx="4" fill="#0A66C2"/>
  <path fill="#ffffff" d="M6.94 8.98H4.5V19.5h2.44V8.98zM5.72 4.5a1.42 1.42 0 1 0 0 2.84 1.42 1.42 0 0 0 0-2.84zM19.5 13.2c0-2.86-1.52-4.2-3.55-4.2-1.64 0-2.38.9-2.8 1.53v-1.35H10.7c.03.9 0 10.32 0 10.32h2.45v-5.77c0-.31.02-.62.11-.84.24-.62.78-1.26 1.69-1.26 1.19 0 1.67.95 1.67 2.34v5.53h2.45v-5.3z"/>
</svg>
